<?xml version="1.0" encoding="UTF-8"?>
<!DOCTYPE svg PUBLIC "-//W3C//DTD SVG 1.1//EN" "http://www.w3.org/Graphics/SVG/1.1/DTD/svg11.dtd">
<svg xmlns="http://www.w3.org/2000/svg" version="1.1" width="1344px" height="430px" style="shape-rendering:geometricPrecision; text-rendering:geometricPrecision; image-rendering:optimizeQuality; fill-rule:evenodd; clip-rule:evenodd" xmlns:xlink="http://www.w3.org/1999/xlink">
<g><path style="opacity:1" fill="#fed81b" d="M 294.5,-0.5 C 295.833,-0.5 297.167,-0.5 298.5,-0.5C 264.061,41.3911 229.395,83.0578 194.5,124.5C 191.856,125.144 190.189,126.811 189.5,129.5C 177.272,143.608 165.272,157.942 153.5,172.5C 139.366,188.759 125.699,205.426 112.5,222.5C 81.3987,207.449 50.3987,192.116 19.5,176.5C 18.479,175.998 18.3123,175.332 19,174.5C 111.275,116.699 203.108,58.3652 294.5,-0.5 Z"/></g>
<g><path style="opacity:1" fill="#ae88f5" d="M 867.5,97.5 C 877.461,96.2829 886.794,98.1163 895.5,103C 905.856,112.28 908.356,123.447 903,136.5C 892.98,150.598 879.48,155.098 862.5,150C 845.402,142.729 839.902,130.229 846,112.5C 851.091,104.383 858.257,99.3833 867.5,97.5 Z"/></g>
<g><path style="opacity:1" fill="#f2a30f" d="M 194.5,124.5 C 195.441,126.05 196.107,127.716 196.5,129.5C 196.317,131.936 196.984,134.103 198.5,136C 196.979,139.644 196.145,143.477 196,147.5C 194.507,152.998 192.341,158.164 189.5,163C 189.5,165 189.5,167 189.5,169C 187.875,169.853 187.542,170.853 188.5,172C 184.963,181.936 181.296,191.936 177.5,202C 178.458,203.147 178.125,204.147 176.5,205C 176.833,205.333 177.167,205.667 177.5,206C 174.094,214.452 171.094,222.786 168.5,231C 169.458,232.147 169.125,233.147 167.5,234C 167.833,234.333 168.167,234.667 168.5,235C 166.996,236.337 165.996,238.004 165.5,240C 166.458,241.147 166.125,242.147 164.5,243C 164.833,243.333 165.167,243.667 165.5,244C 164.142,244.934 162.808,245.768 161.5,246.5C 160.391,246.443 159.391,246.11 158.5,245.5C 154.849,244.341 151.515,242.674 148.5,240.5C 150.262,240.357 151.929,240.691 153.5,241.5C 154.333,240.5 155.167,239.5 156,238.5C 156.19,234.924 157.357,231.758 159.5,229C 159.5,227 159.5,225 159.5,223C 161.394,221.899 162.061,220.566 161.5,219C 162.167,218 162.833,217 163.5,216C 163.112,214.192 163.112,212.525 163.5,211C 165.605,209.665 166.271,207.998 165.5,206C 167.716,199.117 170.383,192.45 173.5,186C 173.255,183.911 173.255,181.911 173.5,180C 175.125,179.147 175.458,178.147 174.5,177C 178.037,167.064 181.704,157.064 185.5,147C 185.724,141.71 187.391,136.21 190.5,130.5C 190.376,129.893 190.043,129.56 189.5,129.5C 190.189,126.811 191.856,125.144 194.5,124.5 Z"/></g>
<g><path style="opacity:1" fill="#f6b014" d="M 196.5,129.5 C 200.345,137.203 203.679,145.203 206.5,153.5C 204.974,154.105 203.974,155.271 203.5,157C 203.833,157.333 204.167,157.667 204.5,158C 201.755,163.449 199.755,168.782 198.5,174C 198.833,174.333 199.167,174.667 199.5,175C 198.572,175.388 197.905,176.055 197.5,177C 195.815,185.058 193.148,192.725 189.5,200C 189.5,202 189.5,204 189.5,206C 187.875,206.853 187.542,207.853 188.5,209C 183.3,222.055 179.134,234.889 176,247.5C 175.5,249.333 174.333,250.5 172.5,251C 173.056,251.383 173.389,251.883 173.5,252.5C 169.248,251.041 165.248,249.041 161.5,246.5C 162.808,245.768 164.142,244.934 165.5,244C 165.167,243.667 164.833,243.333 164.5,243C 166.125,242.147 166.458,241.147 165.5,240C 165.996,238.004 166.996,236.337 168.5,235C 168.167,234.667 167.833,234.333 167.5,234C 169.125,233.147 169.458,232.147 168.5,231C 171.094,222.786 174.094,214.452 177.5,206C 177.167,205.667 176.833,205.333 176.5,205C 178.125,204.147 178.458,203.147 177.5,202C 181.296,191.936 184.963,181.936 188.5,172C 187.542,170.853 187.875,169.853 189.5,169C 189.5,167 189.5,165 189.5,163C 192.341,158.164 194.507,152.998 196,147.5C 196.145,143.477 196.979,139.644 198.5,136C 196.984,134.103 196.317,131.936 196.5,129.5 Z"/></g>
<g><path style="opacity:1" fill="#f9bc13" d="M 206.5,153.5 C 208.676,158.008 210.676,162.675 212.5,167.5C 209.631,175.256 206.631,183.089 203.5,191C 204.079,194.297 203.079,197.297 200.5,200C 200.833,200.333 201.167,200.667 201.5,201C 195.862,218.473 190.362,235.639 185,252.5C 183.968,254.027 182.801,255.36 181.5,256.5C 178.563,255.528 175.897,254.195 173.5,252.5C 173.389,251.883 173.056,251.383 172.5,251C 174.333,250.5 175.5,249.333 176,247.5C 179.134,234.889 183.3,222.055 188.5,209C 187.542,207.853 187.875,206.853 189.5,206C 189.5,204 189.5,202 189.5,200C 193.148,192.725 195.815,185.058 197.5,177C 197.905,176.055 198.572,175.388 199.5,175C 199.167,174.667 198.833,174.333 198.5,174C 199.755,168.782 201.755,163.449 204.5,158C 204.167,157.667 203.833,157.333 203.5,157C 203.974,155.271 204.974,154.105 206.5,153.5 Z"/></g>
<g><path style="opacity:0.996" fill="#7364b2" d="M 1054.5,182.5 C 1048.77,179.974 1043.1,177.141 1037.5,174C 1006.18,162.359 976.851,165.859 949.5,184.5C 942.995,190.167 937.828,196.833 934,204.5C 933.329,205.252 932.496,205.586 931.5,205.5C 942.129,185.062 958.795,172.228 981.5,167C 1002.98,162.308 1023.65,164.641 1043.5,174C 1047.64,176.315 1051.3,179.148 1054.5,182.5 Z"/></g>
<g><path style="opacity:0.125" fill="#07000f" d="M 1131.5,167.5 C 1115.66,167.17 1099.99,167.504 1084.5,168.5C 1083.96,168.44 1083.62,168.107 1083.5,167.5C 1099.66,166.173 1115.66,166.173 1131.5,167.5 Z"/></g>
<g><path style="opacity:0.494" fill="#331856" d="M 465.5,167.5 C 482.325,166.503 499.325,166.17 516.5,166.5C 516.5,192.833 516.5,219.167 516.5,245.5C 515.502,219.672 515.169,193.672 515.5,167.5C 498.833,167.5 482.167,167.5 465.5,167.5 Z"/></g>
<g><path style="opacity:0.996" fill="#7233c6" d="M 465.5,167.5 C 482.167,167.5 498.833,167.5 515.5,167.5C 515.169,193.672 515.502,219.672 516.5,245.5C 518.732,265.618 529.732,273.451 549.5,269C 559.004,264.512 564.504,257.012 566,246.5C 566.168,219.997 566.668,193.663 567.5,167.5C 584.167,167.5 600.833,167.5 617.5,167.5C 617.5,215.5 617.5,263.5 617.5,311.5C 601.675,312.496 585.675,312.83 569.5,312.5C 569.666,307.489 569.499,302.489 569,297.5C 552.338,312.876 532.838,318.042 510.5,313C 505.143,311.829 500.143,309.996 495.5,307.5C 501.537,308.341 507.537,309.508 513.5,311C 535.093,315.08 553.593,309.58 569,294.5C 569.667,295.167 570.333,295.833 571,296.5C 571.499,300.821 571.666,305.154 571.5,309.5C 586.167,309.5 600.833,309.5 615.5,309.5C 615.5,262.833 615.5,216.167 615.5,169.5C 600.167,169.5 584.833,169.5 569.5,169.5C 569.667,193.502 569.5,217.502 569,241.5C 566.987,264.063 554.821,274.23 532.5,272C 524.333,269.167 518.833,263.667 516,255.5C 514.542,226.876 514.042,198.209 514.5,169.5C 498.833,169.5 483.167,169.5 467.5,169.5C 467.333,199.169 467.5,228.835 468,258.5C 468.7,267.035 470.367,275.369 473,283.5C 475.711,286.301 477.545,289.634 478.5,293.5C 475.81,290.961 473.643,287.961 472,284.5C 469.224,277.731 467.224,270.731 466,263.5C 465.5,231.502 465.333,199.502 465.5,167.5 Z"/></g>
<g><path style="opacity:0.251" fill="#1c0e30" d="M 567.5,167.5 C 584.325,166.503 601.325,166.17 618.5,166.5C 618.832,215.003 618.499,263.336 617.5,311.5C 617.5,263.5 617.5,215.5 617.5,167.5C 600.833,167.5 584.167,167.5 567.5,167.5 Z"/></g>
<g><path style="opacity:1" fill="#ae88f5" d="M 849.5,167.5 C 866.167,167.5 882.833,167.5 899.5,167.5C 899.5,215.5 899.5,263.5 899.5,311.5C 882.764,312.831 865.931,312.831 849,311.5C 848.168,263.332 848.335,215.332 849.5,167.5 Z"/></g>
<g><path style="opacity:1" fill="#917bde" d="M 1054.5,182.5 C 1057.43,183.757 1059.76,185.757 1061.5,188.5C 1064.45,195.069 1067.95,201.402 1072,207.5C 1076.96,221.412 1078.79,235.745 1077.5,250.5C 1043.17,250.333 1008.83,250.5 974.5,251C 973.833,251.667 973.167,252.333 972.5,253C 973.45,257.233 975.45,260.9 978.5,264C 979.448,264.483 980.448,264.649 981.5,264.5C 989.645,271.886 999.312,275.553 1010.5,275.5C 1023.07,275.367 1033.91,271.034 1043,262.5C 1052.38,271.38 1061.22,280.713 1069.5,290.5C 1068.48,292.188 1067.15,293.521 1065.5,294.5C 1039.88,311.494 1011.88,316.328 981.5,309C 974.463,306.807 967.463,304.64 960.5,302.5C 940.05,291.659 927.883,274.659 924,251.5C 922.456,237.85 923.789,224.517 928,211.5C 928.941,209.273 930.108,207.273 931.5,205.5C 932.496,205.586 933.329,205.252 934,204.5C 937.828,196.833 942.995,190.167 949.5,184.5C 976.851,165.859 1006.18,162.359 1037.5,174C 1043.1,177.141 1048.77,179.974 1054.5,182.5 Z M 996.5,201.5 C 1015.03,199.583 1027.03,207.416 1032.5,225C 1013.17,225.5 993.836,225.667 974.5,225.5C 976.642,212.693 983.975,204.693 996.5,201.5 Z"/></g>
<g><path style="opacity:1" fill="#25007d" d="M 1263.5,250.5 C 1264.56,255.774 1265.56,255.774 1266.5,250.5C 1275.96,222.786 1285.63,195.12 1295.5,167.5C 1310.49,166.501 1325.49,166.167 1340.5,166.5C 1323.5,215.167 1306.5,263.833 1289.5,312.5C 1272.83,312.667 1256.16,312.5 1239.5,312C 1230.81,287.592 1222.31,263.092 1214,238.5C 1213.59,238.043 1213.09,237.709 1212.5,237.5C 1202.95,262.154 1193.62,286.821 1184.5,311.5C 1167.76,311.818 1151.09,311.485 1134.5,310.5C 1117.27,263.374 1100.6,216.041 1084.5,168.5C 1099.99,167.504 1115.66,167.17 1131.5,167.5C 1141.6,194.126 1150.93,221.126 1159.5,248.5C 1160.4,252.838 1161.4,253.171 1162.5,249.5C 1172.74,222.122 1182.41,194.455 1191.5,166.5C 1206.18,166.167 1220.85,166.501 1235.5,167.5C 1245.24,195.053 1254.57,222.72 1263.5,250.5 Z"/></g>
<g><path style="opacity:1" fill="#8238e1" d="M 495.5,307.5 C 488.614,304.277 482.947,299.611 478.5,293.5C 477.545,289.634 475.711,286.301 473,283.5C 470.367,275.369 468.7,267.035 468,258.5C 467.5,228.835 467.333,199.169 467.5,169.5C 483.167,169.5 498.833,169.5 514.5,169.5C 514.042,198.209 514.542,226.876 516,255.5C 518.833,263.667 524.333,269.167 532.5,272C 554.821,274.23 566.987,264.063 569,241.5C 569.5,217.502 569.667,193.502 569.5,169.5C 584.833,169.5 600.167,169.5 615.5,169.5C 615.5,216.167 615.5,262.833 615.5,309.5C 600.833,309.5 586.167,309.5 571.5,309.5C 571.666,305.154 571.499,300.821 571,296.5C 570.333,295.833 569.667,295.167 569,294.5C 553.593,309.58 535.093,315.08 513.5,311C 507.537,309.508 501.537,308.341 495.5,307.5 Z"/></g>
<g><path style="opacity:0.376" fill="#382c50" d="M 849.5,167.5 C 866.325,166.503 883.325,166.17 900.5,166.5C 900.832,215.003 900.499,263.336 899.5,311.5C 899.5,263.5 899.5,215.5 899.5,167.5C 882.833,167.5 866.167,167.5 849.5,167.5 Z"/></g>
<g><path style="opacity:0.996" fill="#41069a" d="M 252.5,124.5 C 271.512,124.167 290.512,124.5 309.5,125.5C 317.779,145.058 325.779,164.725 333.5,184.5C 324.392,206.518 314.726,228.185 304.5,249.5C 286.539,208.449 268.873,167.283 251.5,126C 252.056,125.617 252.389,125.117 252.5,124.5 Z"/></g>
<g><path style="opacity:1" fill="#5400c7" d="M 254.5,128.5 C 272.236,127.169 290.069,127.169 308,128.5C 315.771,147.044 323.271,165.711 330.5,184.5C 322.558,205.052 314.058,225.386 305,245.5C 288.242,206.37 271.409,167.37 254.5,128.5 Z"/></g>
<g><path style="opacity:0.996" fill="#42059a" d="M 411.5,124.5 C 428.846,124.167 446.179,124.5 463.5,125.5C 436.903,187.459 410.403,249.459 384,311.5C 366.577,312.492 349.077,312.825 331.5,312.5C 357.589,249.561 384.255,186.894 411.5,124.5 Z"/></g>
<g><path style="opacity:1" fill="#5400c8" d="M 412.5,127.5 C 428.167,127.5 443.833,127.5 459.5,127.5C 434.28,187.908 408.78,248.242 383,308.5C 366.907,309.658 350.741,309.824 334.5,309C 360.748,248.366 386.748,187.866 412.5,127.5 Z"/></g>
<g><path style="opacity:1" fill="#fecf18" d="M 212.5,167.5 C 230.631,211.219 248.964,254.886 267.5,298.5C 267.043,299.298 266.376,299.631 265.5,299.5C 237.781,284.641 209.781,270.307 181.5,256.5C 182.801,255.36 183.968,254.027 185,252.5C 190.362,235.639 195.862,218.473 201.5,201C 201.167,200.667 200.833,200.333 200.5,200C 203.079,197.297 204.079,194.297 203.5,191C 206.631,183.089 209.631,175.256 212.5,167.5 Z"/></g>
<g><path style="opacity:1" fill="#ee920d" d="M 189.5,129.5 C 190.043,129.56 190.376,129.893 190.5,130.5C 187.391,136.21 185.724,141.71 185.5,147C 181.704,157.064 178.037,167.064 174.5,177C 175.458,178.147 175.125,179.147 173.5,180C 173.255,181.911 173.255,183.911 173.5,186C 170.383,192.45 167.716,199.117 165.5,206C 166.271,207.998 165.605,209.665 163.5,211C 163.112,212.525 163.112,214.192 163.5,216C 162.833,217 162.167,218 161.5,219C 162.061,220.566 161.394,221.899 159.5,223C 159.5,225 159.5,227 159.5,229C 157.357,231.758 156.19,234.924 156,238.5C 155.167,239.5 154.333,240.5 153.5,241.5C 151.929,240.691 150.262,240.357 148.5,240.5C 141.516,237.675 134.849,234.341 128.5,230.5C 130.262,230.357 131.929,230.691 133.5,231.5C 135.188,229.971 136.521,228.137 137.5,226C 136.542,224.853 136.875,223.853 138.5,223C 138.167,222.667 137.833,222.333 137.5,222C 141.027,214.408 143.361,207.074 144.5,200C 145.833,197.333 147.167,194.667 148.5,192C 148.5,190.667 148.5,189.333 148.5,188C 149.13,186.108 150.13,184.441 151.5,183C 151.317,179.7 152.317,176.534 154.5,173.5C 154.376,172.893 154.043,172.56 153.5,172.5C 165.272,157.942 177.272,143.608 189.5,129.5 Z"/></g>
<g><path style="opacity:1" fill="#e7790e" d="M 153.5,172.5 C 154.043,172.56 154.376,172.893 154.5,173.5C 152.317,176.534 151.317,179.7 151.5,183C 150.13,184.441 149.13,186.108 148.5,188C 148.5,189.333 148.5,190.667 148.5,192C 147.167,194.667 145.833,197.333 144.5,200C 143.361,207.074 141.027,214.408 137.5,222C 137.833,222.333 138.167,222.667 138.5,223C 136.875,223.853 136.542,224.853 137.5,226C 136.521,228.137 135.188,229.971 133.5,231.5C 131.929,230.691 130.262,230.357 128.5,230.5C 122.849,228.341 117.516,225.674 112.5,222.5C 125.699,205.426 139.366,188.759 153.5,172.5 Z"/></g>
<g><path style="opacity:0.996" fill="#7f6dc4" d="M 1061.5,188.5 C 1077.38,206.839 1083.38,228.173 1079.5,252.5C 1044.83,252.5 1010.17,252.5 975.5,252.5C 976.442,257.052 978.442,261.052 981.5,264.5C 980.448,264.649 979.448,264.483 978.5,264C 975.45,260.9 973.45,257.233 972.5,253C 973.167,252.333 973.833,251.667 974.5,251C 1008.83,250.5 1043.17,250.333 1077.5,250.5C 1078.79,235.745 1076.96,221.412 1072,207.5C 1067.95,201.402 1064.45,195.069 1061.5,188.5 Z"/></g>
<g><path style="opacity:0.996" fill="#8f5bc9" d="M 757.5,311.5 C 740.325,311.83 723.325,311.497 706.5,310.5C 732.648,248.865 758.815,187.199 785,125.5C 802.76,124.342 820.593,124.175 838.5,125C 811.595,187.3 784.595,249.466 757.5,311.5 Z"/></g>
<g><path style="opacity:1" fill="#b171fb" d="M 786.5,127.5 C 802.503,127.333 818.503,127.5 834.5,128C 808.962,188.24 783.296,248.406 757.5,308.5C 741.5,309.833 725.5,309.833 709.5,308.5C 734.958,248.14 760.625,187.807 786.5,127.5 Z"/></g>
<g><path style="opacity:0.996" fill="#8957c1" d="M 626.5,124.5 C 645.503,124.333 664.503,124.5 683.5,125C 691.927,144.776 700.26,164.609 708.5,184.5C 698.924,206.649 689.091,228.649 679,250.5C 660.998,208.649 643.498,166.649 626.5,124.5 Z"/></g>
<g><path style="opacity:1" fill="#b171fa" d="M 629.5,127.5 C 647.57,126.855 665.404,127.522 683,129.5C 690.638,147.943 698.138,166.443 705.5,185C 697.033,204.952 688.366,224.785 679.5,244.5C 662.04,205.77 645.373,166.77 629.5,127.5 Z"/></g>
<g><path style="opacity:0.038" fill="#080013" d="M 1159.5,248.5 C 1160.39,249.11 1161.39,249.443 1162.5,249.5C 1161.4,253.171 1160.4,252.838 1159.5,248.5 Z"/></g>
<g><path style="opacity:0.01" fill="#040010" d="M 1263.5,250.5 C 1264.5,250.5 1265.5,250.5 1266.5,250.5C 1265.56,255.774 1264.56,255.774 1263.5,250.5 Z"/></g>
<g><path style="opacity:1" fill="#e5730b" d="M 158.5,245.5 C 159.391,246.11 160.391,246.443 161.5,246.5C 165.248,249.041 169.248,251.041 173.5,252.5C 175.897,254.195 178.563,255.528 181.5,256.5C 209.781,270.307 237.781,284.641 265.5,299.5C 259.182,303.326 252.516,306.659 245.5,309.5C 242.264,310.707 239.097,311.373 236,311.5C 233.34,310.166 230.506,309.332 227.5,309C 228.167,308.667 228.833,308.333 229.5,308C 226.956,306.908 224.289,306.241 221.5,306C 222.5,305.667 223.5,305.333 224.5,305C 222.122,304.489 219.788,303.822 217.5,303C 218.5,302.667 219.5,302.333 220.5,302C 218.567,301.749 216.734,301.249 215,300.5C 214.667,300.833 214.333,301.167 214,301.5C 212.933,300.809 211.766,300.309 210.5,300C 211.5,299.667 212.5,299.333 213.5,299C 210.353,298.054 207.353,296.887 204.5,295.5C 204.5,294.5 204.5,293.5 204.5,292.5C 202.473,292.662 200.473,292.495 198.5,292C 199.833,291.333 199.833,290.667 198.5,290C 196.5,289.667 194.5,289.333 192.5,289C 192.833,288.667 193.167,288.333 193.5,288C 192.062,287.781 190.729,287.281 189.5,286.5C 189.709,285.914 190.043,285.414 190.5,285C 188.5,284.667 186.5,284.333 184.5,284C 183.167,283.333 183.167,282.667 184.5,282C 182.899,281.727 181.399,281.227 180,280.5C 177.989,281.717 175.989,281.384 174,279.5C 173.667,279.833 173.333,280.167 173,280.5C 165.221,275.117 157.054,270.284 148.5,266C 147.426,265.261 146.759,264.261 146.5,263C 147.783,260.588 149.616,258.755 152,257.5C 153.122,255.593 153.955,253.593 154.5,251.5C 156.192,249.795 157.525,247.795 158.5,245.5 Z"/></g>
<g><path style="opacity:1" fill="#e98012" d="M 154.5,251.5 C 153.955,253.593 153.122,255.593 152,257.5C 149.616,258.755 147.783,260.588 146.5,263C 146.759,264.261 147.426,265.261 148.5,266C 157.054,270.284 165.221,275.117 173,280.5C 173.333,280.167 173.667,279.833 174,279.5C 175.989,281.384 177.989,281.717 180,280.5C 181.399,281.227 182.899,281.727 184.5,282C 183.167,282.667 183.167,283.333 184.5,284C 186.5,284.333 188.5,284.667 190.5,285C 190.043,285.414 189.709,285.914 189.5,286.5C 190.729,287.281 192.062,287.781 193.5,288C 193.167,288.333 192.833,288.667 192.5,289C 194.5,289.333 196.5,289.667 198.5,290C 199.833,290.667 199.833,291.333 198.5,292C 200.473,292.495 202.473,292.662 204.5,292.5C 204.5,293.5 204.5,294.5 204.5,295.5C 207.353,296.887 210.353,298.054 213.5,299C 212.5,299.333 211.5,299.667 210.5,300C 211.766,300.309 212.933,300.809 214,301.5C 214.333,301.167 214.667,300.833 215,300.5C 216.734,301.249 218.567,301.749 220.5,302C 219.5,302.333 218.5,302.667 217.5,303C 219.788,303.822 222.122,304.489 224.5,305C 223.5,305.333 222.5,305.667 221.5,306C 224.289,306.241 226.956,306.908 229.5,308C 228.833,308.333 228.167,308.667 227.5,309C 230.506,309.332 233.34,310.166 236,311.5C 239.097,311.373 242.264,310.707 245.5,309.5C 239.412,312.897 233.078,315.897 226.5,318.5C 221.011,317.169 215.844,314.502 211,310.5C 188.216,298.31 165.716,285.643 143.5,272.5C 141.255,270.433 140.921,268.1 142.5,265.5C 146.155,260.514 150.155,255.847 154.5,251.5 Z"/></g>
<g><path style="opacity:1" fill="#ed8d10" d="M 142.5,265.5 C 140.921,268.1 141.255,270.433 143.5,272.5C 165.716,285.643 188.216,298.31 211,310.5C 215.844,314.502 221.011,317.169 226.5,318.5C 223.485,320.674 220.151,322.341 216.5,323.5C 214.523,324.149 212.69,324.149 211,323.5C 210.333,324.167 209.667,324.833 209,325.5C 207.422,324.453 205.922,324.453 204.5,325.5C 206.748,326.324 206.914,327.324 205,328.5C 200.096,328.825 195.762,327.158 192,323.5C 190.187,324.609 189.354,323.942 189.5,321.5C 185.825,321.246 182.991,319.58 181,316.5C 180.195,318.901 179.362,318.734 178.5,316C 163.862,307.351 148.528,298.518 132.5,289.5C 130.786,290.609 130.119,289.942 130.5,287.5C 129.5,287.5 128.5,287.5 127.5,287.5C 127.517,285.435 127.85,283.435 128.5,281.5C 132.801,275.865 137.467,270.532 142.5,265.5 Z"/></g>
<g><path style="opacity:1" fill="#f19d11" d="M 128.5,281.5 C 127.85,283.435 127.517,285.435 127.5,287.5C 128.5,287.5 129.5,287.5 130.5,287.5C 130.119,289.942 130.786,290.609 132.5,289.5C 148.528,298.518 163.862,307.351 178.5,316C 179.362,318.734 180.195,318.901 181,316.5C 182.991,319.58 185.825,321.246 189.5,321.5C 189.354,323.942 190.187,324.609 192,323.5C 195.762,327.158 200.096,328.825 205,328.5C 206.914,327.324 206.748,326.324 204.5,325.5C 205.922,324.453 207.422,324.453 209,325.5C 209.667,324.833 210.333,324.167 211,323.5C 212.69,324.149 214.523,324.149 216.5,323.5C 211.265,326.949 205.598,329.616 199.5,331.5C 195.023,332.978 190.523,334.645 186,336.5C 169.734,328.508 154.4,319.842 140,310.5C 132.167,306.333 124.333,302.167 116.5,298C 117.464,296.275 118.131,294.441 118.5,292.5C 121.142,288.225 124.475,284.558 128.5,281.5 Z"/></g>
<g><path style="opacity:0.996" fill="#7767b7" d="M 1065.5,294.5 C 1059.43,301.048 1052.1,305.882 1043.5,309C 1019.05,316.603 994.715,316.27 970.5,308C 966.796,306.619 963.463,304.786 960.5,302.5C 967.463,304.64 974.463,306.807 981.5,309C 1011.88,316.328 1039.88,311.494 1065.5,294.5 Z"/></g>
<g><path style="opacity:1" fill="#f4aa14" d="M 118.5,292.5 C 118.131,294.441 117.464,296.275 116.5,298C 124.333,302.167 132.167,306.333 140,310.5C 154.4,319.842 169.734,328.508 186,336.5C 190.523,334.645 195.023,332.978 199.5,331.5C 190.935,336.615 181.935,340.948 172.5,344.5C 151.272,333.408 130.272,321.742 109.5,309.5C 108.548,307.955 108.215,306.288 108.5,304.5C 111.463,300.202 114.797,296.202 118.5,292.5 Z"/></g>
<g><path style="opacity:0.251" fill="#2a1a3d" d="M 706.5,310.5 C 723.325,311.497 740.325,311.83 757.5,311.5C 740.329,312.827 722.995,312.827 705.5,311.5C 705.624,310.893 705.957,310.56 706.5,310.5 Z"/></g>
<g><path style="opacity:0.251" fill="#0a001e" d="M 1134.5,310.5 C 1151.09,311.485 1167.76,311.818 1184.5,311.5C 1176.34,312.166 1168.01,312.5 1159.5,312.5C 1150.81,312.498 1142.47,311.831 1134.5,310.5 Z"/></g>
<g><path style="opacity:1" fill="#f8b719" d="M 108.5,304.5 C 108.215,306.288 108.548,307.955 109.5,309.5C 130.272,321.742 151.272,333.408 172.5,344.5C 166.182,348.326 159.516,351.659 152.5,354.5C 152.119,353.069 151.119,352.236 149.5,352C 150.5,351.667 151.5,351.333 152.5,351C 134.402,341.784 116.735,331.784 99.5,321C 98.7877,319.575 98.621,318.075 99,316.5C 98.3292,317.252 97.4959,317.586 96.5,317.5C 100.277,312.935 104.277,308.602 108.5,304.5 Z"/></g>
<g><path style="opacity:0.41" fill="#000000" d="M 589.5,323.5 C 589.897,322.475 590.563,322.308 591.5,323C 590.906,323.464 590.239,323.631 589.5,323.5 Z"/></g>
<g><path style="opacity:1" fill="#fbc318" d="M 152.5,354.5 C 149.211,356.158 145.877,357.825 142.5,359.5C 142.631,358.624 142.298,357.957 141.5,357.5C 139.352,358.758 137.185,358.758 135,357.5C 121.081,348.42 106.747,340.086 92,332.5C 89.8531,331.404 89.3531,329.904 90.5,328C 89.4232,327.53 88.4232,327.697 87.5,328.5C 90.0985,324.562 93.0985,320.895 96.5,317.5C 97.4959,317.586 98.3292,317.252 99,316.5C 98.621,318.075 98.7877,319.575 99.5,321C 116.735,331.784 134.402,341.784 152.5,351C 151.5,351.333 150.5,351.667 149.5,352C 151.119,352.236 152.119,353.069 152.5,354.5 Z"/></g>
<g><path style="opacity:1" fill="#ffd220" d="M 142.5,359.5 C 95.8878,382.057 49.3878,404.723 3,427.5C 2.5,427 2,426.5 1.5,426C 30.0319,393.306 58.6986,360.806 87.5,328.5C 88.4232,327.697 89.4232,327.53 90.5,328C 89.3531,329.904 89.8531,331.404 92,332.5C 106.747,340.086 121.081,348.42 135,357.5C 137.185,358.758 139.352,358.758 141.5,357.5C 142.298,357.957 142.631,358.624 142.5,359.5 Z"/></g>
</svg>
